<svg width="65" height="72" viewBox="0 0 65 72" fill="none" xmlns="http://www.w3.org/2000/svg">
<g id="chart">
<g id="Group">
<path id="Vector (Stroke)" fill-rule="evenodd" clip-rule="evenodd" d="M48.0016 6.00069C48.0016 3.06279 50.397 0.667358 53.3349 0.667358H58.6681C61.606 0.667358 64.0015 3.06279 64.0015 6.00069V56.0007C64.0015 58.9386 61.606 61.334 58.6681 61.334H53.3349C50.397 61.334 48.0016 58.9386 48.0016 56.0007V6.00069ZM53.3349 4.66736C52.6061 4.66736 52.0016 5.27193 52.0016 6.00069V56.0007C52.0016 56.7295 52.6061 57.334 53.3349 57.334H58.6681C59.3969 57.334 60.0015 56.7295 60.0015 56.0007V6.00069C60.0015 5.27193 59.3969 4.66736 58.6681 4.66736H53.3349ZM23.9969 16.6351C23.9969 13.6972 26.3923 11.3017 29.3302 11.3017H34.6635C37.6014 11.3017 39.9968 13.6972 39.9968 16.6351V56.0017C39.9968 58.9396 37.6014 61.3351 34.6635 61.3351H29.3302C26.3923 61.3351 23.9969 58.9396 23.9969 56.0017V16.6351ZM29.3302 15.3017C28.6014 15.3017 27.9969 15.9063 27.9969 16.6351V56.0017C27.9969 56.7305 28.6014 57.3351 29.3302 57.3351H34.6635C35.3922 57.3351 35.9968 56.7305 35.9968 56.0017V16.6351C35.9968 15.9063 35.3922 15.3017 34.6635 15.3017H29.3302ZM0 27.2679C0 24.33 2.39543 21.9345 5.33333 21.9345H10.6666C13.6045 21.9345 15.9999 24.33 15.9999 27.2679V56.0012C15.9999 58.9391 13.6045 61.3345 10.6666 61.3345H5.33333C2.39543 61.3345 0 58.9391 0 56.0012V27.2679ZM5.33333 25.9345C4.60457 25.9345 4 26.5391 4 27.2679V56.0012C4 56.73 4.60457 57.3345 5.33333 57.3345H10.6666C11.3953 57.3345 11.9999 56.73 11.9999 56.0012V27.2679C11.9999 26.5391 11.3953 25.9345 10.6666 25.9345H5.33333ZM0 69.3344C0 68.2298 0.89543 67.3344 2 67.3344H62C63.1046 67.3344 64 68.2298 64 69.3344C64 70.4389 63.1046 71.3344 62 71.3344H2C0.89543 71.3344 0 70.4389 0 69.3344Z" fill="url(#paint0_linear_844_801)"/>
</g>
</g>
<defs>
<linearGradient id="paint0_linear_844_801" x1="69.1415" y1="83.2087" x2="-5.82206" y2="70.0515" gradientUnits="userSpaceOnUse">
<stop stop-color="#E5006D"/>
<stop offset="0.1671" stop-color="#C90171"/>
<stop offset="0.4658" stop-color="#961975"/>
<stop offset="0.714" stop-color="#6F1F78"/>
<stop offset="0.899" stop-color="#56207A"/>
<stop offset="1" stop-color="#4C217A"/>
</linearGradient>
</defs>
</svg>
