<svg width="74" height="74" viewBox="0 0 74 74" fill="none" xmlns="http://www.w3.org/2000/svg">
<g id="dollar-circle">
<path id="Vector (Stroke)" fill-rule="evenodd" clip-rule="evenodd" d="M37.0003 8.1665C21.0761 8.1665 8.16699 21.0756 8.16699 36.9998C8.16699 52.9241 21.0761 65.8332 37.0003 65.8332C52.9245 65.8332 65.8337 52.9241 65.8337 36.9998C65.8337 21.0756 52.9245 8.1665 37.0003 8.1665ZM4.16699 36.9998C4.16699 18.8665 18.867 4.1665 37.0003 4.1665C55.1337 4.1665 69.8337 18.8665 69.8337 36.9998C69.8337 55.1332 55.1337 69.8332 37.0003 69.8332C18.867 69.8332 4.16699 55.1332 4.16699 36.9998ZM37.0003 16.4998C38.1049 16.4998 39.0003 17.3953 39.0003 18.4998V20.631H40.4594C45.4471 20.631 49.3044 24.8259 49.3044 29.8152C49.3044 30.9198 48.409 31.8152 47.3044 31.8152C46.1999 31.8152 45.3044 30.9198 45.3044 29.8152C45.3044 26.8495 43.0568 24.631 40.4594 24.631H39.0003V35.5695L43.9026 37.2726C45.2649 37.7554 46.7012 38.4656 47.7569 39.8124C48.8311 41.1827 49.3044 42.9415 49.3044 45.1085C49.3044 49.5802 45.8108 53.3677 41.3228 53.3677H39.0003V55.4998C39.0003 56.6044 38.1049 57.4998 37.0003 57.4998C35.8958 57.4998 35.0003 56.6044 35.0003 55.4998V53.3677H33.5836C28.596 53.3677 24.7386 49.1728 24.7386 44.1835C24.7386 43.079 25.634 42.1835 26.7386 42.1835C27.8432 42.1835 28.7386 43.079 28.7386 44.1835C28.7386 47.1492 30.9862 49.3677 33.5836 49.3677H35.0003V38.4145L30.1405 36.7262C28.7782 36.2433 27.3418 35.5331 26.2861 34.1864C25.2119 32.816 24.7386 31.0572 24.7386 28.8902C24.7386 24.4185 28.2323 20.631 32.7203 20.631H35.0003V18.4998C35.0003 17.3953 35.8958 16.4998 37.0003 16.4998ZM35.0003 24.631H32.7203C30.61 24.631 28.7386 26.4552 28.7386 28.8902C28.7386 30.4848 29.0824 31.2698 29.4342 31.7186C29.8039 32.1902 30.4011 32.5741 31.4711 32.9539C31.473 32.9546 31.4749 32.9553 31.4767 32.9559L35.0003 34.18V24.631ZM39.0003 39.804V49.3677H41.3228C43.4331 49.3677 45.3044 47.5435 45.3044 45.1085C45.3044 43.5139 44.9607 42.7289 44.6089 42.2801C44.2392 41.8085 43.6421 41.4247 42.5723 41.0449C42.5703 41.0442 42.5683 41.0435 42.5663 41.0428L39.0003 39.804Z" fill="url(#paint0_linear_844_795)"/>
</g>
<defs>
<linearGradient id="paint0_linear_844_795" x1="75.1074" y1="80.8673" x2="-1.30611" y2="66.0588" gradientUnits="userSpaceOnUse">
<stop stop-color="#E5006D"/>
<stop offset="0.1671" stop-color="#C90171"/>
<stop offset="0.4658" stop-color="#961975"/>
<stop offset="0.714" stop-color="#6F1F78"/>
<stop offset="0.899" stop-color="#56207A"/>
<stop offset="1" stop-color="#4C217A"/>
</linearGradient>
</defs>
</svg>
