<svg width="72" height="72" viewBox="0 0 72 72" fill="none" xmlns="http://www.w3.org/2000/svg">
<g id="Group 30">
<path id="Vector (Stroke)" fill-rule="evenodd" clip-rule="evenodd" d="M2.66797 0.666016C3.77254 0.666016 4.66797 1.56145 4.66797 2.66602V59.3327C4.66797 63.7614 8.2392 67.3327 12.668 67.3327H69.3346C70.4392 67.3327 71.3346 68.2281 71.3346 69.3327C71.3346 70.4372 70.4392 71.3327 69.3346 71.3327H12.668C6.03007 71.3327 0.667969 65.9706 0.667969 59.3327V2.66602C0.667969 1.56145 1.5634 0.666016 2.66797 0.666016ZM67.3024 17.8151C68.1413 18.5337 68.2388 19.7962 67.5202 20.6351L52.1869 38.5351L52.1816 38.5412C48.8909 42.3515 43.0445 42.5723 39.4871 39.0149L36.3119 35.8396C34.4166 33.9213 31.2713 34.0391 29.4842 36.1049C29.4833 36.1059 29.4825 36.1069 29.4816 36.1079L14.1871 53.9682C13.4686 54.8072 12.2061 54.9049 11.3671 54.1864C10.5281 53.468 10.4304 52.2054 11.1489 51.3664L26.4543 33.4935C29.733 29.6971 35.5822 29.4145 39.1531 33.024C39.1545 33.0255 39.156 33.0269 39.1574 33.0284L42.3155 36.1865C44.2239 38.0948 47.3753 37.9832 49.1517 35.9297C49.1526 35.9287 49.1535 35.9277 49.1543 35.9267L64.4824 18.0329C65.201 17.194 66.4635 17.0965 67.3024 17.8151Z" fill="url(#paint0_linear_844_826)"/>
</g>
<defs>
<linearGradient id="paint0_linear_844_826" x1="77.0099" y1="83.207" x2="-5.22187" y2="67.2709" gradientUnits="userSpaceOnUse">
<stop stop-color="#E5006D"/>
<stop offset="0.1671" stop-color="#C90171"/>
<stop offset="0.4658" stop-color="#961975"/>
<stop offset="0.714" stop-color="#6F1F78"/>
<stop offset="0.899" stop-color="#56207A"/>
<stop offset="1" stop-color="#4C217A"/>
</linearGradient>
</defs>
</svg>
