<svg width="71" height="71" viewBox="0 0 71 71" fill="none" xmlns="http://www.w3.org/2000/svg">
<g id="Group">
<path id="Vector (Stroke)" fill-rule="evenodd" clip-rule="evenodd" d="M4.92188 10.6C4.92188 4.76716 9.6456 0 15.5219 0C21.3931 0 26.1219 4.72877 26.1219 10.6C26.1219 16.3441 21.6023 20.9931 15.9276 21.1987C15.798 21.2034 15.6681 21.1955 15.54 21.175C15.5396 21.175 15.5391 21.175 15.5385 21.175C15.538 21.175 15.5375 21.175 15.5371 21.175C15.4089 21.1955 15.2791 21.2034 15.1495 21.1987C9.47231 20.993 4.96286 16.3448 4.92193 10.6143L4.92188 10.6ZM8.92188 10.5929C8.95088 14.141 11.6937 16.9913 15.1439 17.1942C15.4042 17.1686 15.6729 17.1686 15.9332 17.1942C19.3878 16.9912 22.1219 14.1381 22.1219 10.6C22.1219 6.93791 19.184 4 15.5219 4C11.8672 4 8.92573 6.96231 8.92188 10.5929ZM55.0277 4C51.3656 4 48.4277 6.93791 48.4277 10.6C48.4277 14.1381 51.1618 16.9912 54.6164 17.1942C54.8767 17.1686 55.1454 17.1686 55.4057 17.1942C58.8559 16.9913 61.5988 14.1409 61.6277 10.5927C61.6238 6.96222 58.6823 4 55.0277 4ZM44.4277 10.6C44.4277 4.72877 49.1565 0 55.0277 0C60.904 0 65.6277 4.76716 65.6277 10.6L65.6277 10.6143C65.5867 16.3448 61.0773 20.993 55.4001 21.1987C55.2705 21.2034 55.1407 21.1955 55.0126 21.175C55.0121 21.175 55.0116 21.175 55.0111 21.175C55.0105 21.175 55.01 21.175 55.0096 21.175C54.8815 21.1955 54.7517 21.2034 54.622 21.1987C48.9473 20.9931 44.4277 16.3441 44.4277 10.6ZM35.0264 28.8984C31.3643 28.8984 28.4264 31.8363 28.4264 35.4984C28.4264 39.0365 31.1605 41.8896 34.6151 42.0926C34.8783 42.0668 35.1501 42.0671 35.4132 42.0935C38.8427 41.9177 41.5974 39.0537 41.6264 35.4912C41.6225 31.8607 38.681 28.8984 35.0264 28.8984ZM24.4264 35.4984C24.4264 29.6272 29.1552 24.8984 35.0264 24.8984C40.9027 24.8984 45.6264 29.6656 45.6264 35.4984L45.6264 35.5127C45.5855 41.2303 41.0857 45.9324 35.3844 46.0976C35.2595 46.1012 35.1346 46.0931 35.0113 46.0735C35.0108 46.0735 35.0103 46.0734 35.0098 46.0734C35.0092 46.0734 35.0087 46.0735 35.0083 46.0735C34.8802 46.0939 34.7504 46.1018 34.6207 46.0971C28.946 45.8915 24.4264 41.2425 24.4264 35.4984ZM6.63273 31.3319C9.69206 29.3028 14.2483 28.5404 18.4132 29.27C19.5012 29.4606 20.5377 28.7331 20.7283 27.6451C20.9189 26.5571 20.1914 25.5206 19.1034 25.33C14.1359 24.4598 8.49318 25.2969 4.4192 28.0002L4.4156 28.0026C1.64857 29.8473 0 32.4796 0 35.3667C0 38.2532 1.64785 40.885 4.41379 42.7296C8.45638 45.4365 14.0314 46.2715 18.9895 45.4391C20.0788 45.2562 20.8136 44.2249 20.6307 43.1356C20.4478 42.0462 19.4165 41.3114 18.3272 41.4943C14.1526 42.1951 9.66195 41.4305 6.63802 39.405L6.6344 39.4026C4.70143 38.1139 4 36.6129 4 35.3667C4 34.1208 4.70102 32.6203 6.63273 31.3319ZM51.4475 25.3305C56.415 24.4603 62.0577 25.2974 66.1317 28.0007L66.1353 28.0031C68.9024 29.8478 70.5509 32.4801 70.5509 35.3672C70.5509 38.2534 68.9034 40.885 66.1379 42.7296C66.137 42.7302 66.1362 42.7307 66.1353 42.7313L65.0259 41.0672L66.1389 42.7289C66.1386 42.7291 66.1382 42.7294 66.1379 42.7296C62.0952 45.4369 56.5198 46.272 51.5615 45.4396C50.4721 45.2567 49.7373 44.2254 49.9202 43.1361C50.1031 42.0467 51.1344 41.3119 52.2237 41.4948C56.3983 42.1956 60.889 41.431 63.9129 39.4055L63.9165 39.4031C65.8495 38.1145 66.5509 36.6134 66.5509 35.3672C66.5509 34.1213 65.8499 32.6208 63.9181 31.3324C63.9188 31.3328 63.9194 31.3333 63.9201 31.3337L65.0259 29.6672L63.9165 31.3313C63.9171 31.3317 63.9176 31.332 63.9181 31.3324C60.8588 29.3033 56.3026 28.5409 52.1377 29.2705C51.0497 29.4611 50.0132 28.7336 49.8226 27.6456C49.632 26.5576 50.3595 25.5211 51.4475 25.3305ZM35.341 49.9473C39.1612 49.9473 43.088 50.8999 46.1379 52.9332C48.9049 54.7779 50.5535 57.4101 50.5535 60.2973C50.5535 63.1844 48.9049 65.8167 46.1379 67.6614C43.0741 69.7094 39.1488 70.6723 35.3285 70.6723C31.5072 70.6723 27.5808 69.7089 24.5167 67.6598L25.6285 65.9973L24.5191 67.6614C24.5183 67.6608 24.5175 67.6603 24.5167 67.6598C21.7511 65.8152 20.1035 63.1835 20.1035 60.2973C20.1035 57.4101 21.7521 54.7779 24.5191 52.9332L24.5239 52.93C27.5879 50.9001 31.5203 49.9473 35.341 49.9473ZM26.7353 56.2631C24.8043 57.5514 24.1035 59.0516 24.1035 60.2973C24.1035 61.5435 24.8049 63.0445 26.7379 64.3332L26.7403 64.3348C29.0095 65.8523 32.1165 66.6723 35.3285 66.6723C38.5406 66.6723 41.6475 65.8523 43.9167 64.3348L43.9191 64.3332C45.8521 63.0445 46.5535 61.5435 46.5535 60.2973C46.5535 59.0511 45.8521 57.55 43.9191 56.2614C41.669 54.7613 38.5625 53.9473 35.341 53.9473C32.1211 53.9473 29.0045 54.7606 26.7353 56.2631Z" fill="url(#paint0_linear_844_810)"/>
</g>
<defs>
<linearGradient id="paint0_linear_844_810" x1="76.2169" y1="82.5475" x2="-5.89039" y2="66.6629" gradientUnits="userSpaceOnUse">
<stop stop-color="#E5006D"/>
<stop offset="0.1671" stop-color="#C90171"/>
<stop offset="0.4658" stop-color="#961975"/>
<stop offset="0.714" stop-color="#6F1F78"/>
<stop offset="0.899" stop-color="#56207A"/>
<stop offset="1" stop-color="#4C217A"/>
</linearGradient>
</defs>
</svg>
