<svg width="66" height="71" viewBox="0 0 66 71" fill="none" xmlns="http://www.w3.org/2000/svg">
<g id="Group 29">
<path id="Vector (Stroke)" fill-rule="evenodd" clip-rule="evenodd" d="M30.6328 4C22.5326 4 15.9661 10.5665 15.9661 18.6667C15.9661 26.7668 22.5326 33.3333 30.6328 33.3333C38.733 33.3333 45.2995 26.7668 45.2995 18.6667C45.2995 10.5665 38.733 4 30.6328 4ZM11.9661 18.6667C11.9661 8.35735 20.3235 0 30.6328 0C40.9421 0 49.2995 8.35735 49.2995 18.6667C49.2995 28.976 40.9421 37.3333 30.6328 37.3333C20.3235 37.3333 11.9661 28.976 11.9661 18.6667ZM30.6334 47.3333C15.5344 47.3333 4 57.2356 4 68.6667C4 69.7712 3.10457 70.6667 2 70.6667C0.89543 70.6667 0 69.7712 0 68.6667C0 54.2977 14.1324 43.3333 30.6334 43.3333C31.738 43.3333 32.6334 44.2288 32.6334 45.3333C32.6334 46.4379 31.738 47.3333 30.6334 47.3333ZM51.2995 47.3333C46.5131 47.3333 42.6328 51.2136 42.6328 56C42.6328 60.7865 46.5131 64.6667 51.2995 64.6667C56.086 64.6667 59.9662 60.7865 59.9662 56C59.9662 51.2136 56.086 47.3333 51.2995 47.3333ZM38.6328 56C38.6328 49.0044 44.3039 43.3333 51.2995 43.3333C58.2951 43.3333 63.9662 49.0044 63.9662 56C63.9662 58.8182 63.0459 61.4214 61.4894 63.5255C61.6911 63.621 61.8802 63.7522 62.047 63.9191L65.3804 67.2524C66.1614 68.0335 66.1614 69.2998 65.3804 70.0809C64.5993 70.8619 63.333 70.8619 62.5519 70.0809L59.2186 66.7475C59.0517 66.5807 58.9205 66.3916 58.8249 66.1899C56.7209 67.7464 54.1177 68.6667 51.2995 68.6667C44.3039 68.6667 38.6328 62.9957 38.6328 56Z" fill="url(#paint0_linear_844_738)"/>
</g>
<defs>
<linearGradient id="paint0_linear_844_738" x1="71.2639" y1="82.541" x2="-5.85708" y2="68.5895" gradientUnits="userSpaceOnUse">
<stop stop-color="#E5006D"/>
<stop offset="0.1671" stop-color="#C90171"/>
<stop offset="0.4658" stop-color="#961975"/>
<stop offset="0.714" stop-color="#6F1F78"/>
<stop offset="0.899" stop-color="#56207A"/>
<stop offset="1" stop-color="#4C217A"/>
</linearGradient>
</defs>
</svg>
